<svg aria-hidden="true" style="position: absolute; width: 0; height: 0; overflow: hidden;" version="1.1" xmlns="http://www.w3.org/2000/svg" xmlns:xlink="http://www.w3.org/1999/xlink">
<defs>
<symbol id="icon-youtube" fill="none" viewBox="0 0 44 44">
<g opacity="0.8">
<path fill-rule="evenodd" clip-rule="evenodd" d="M29.2101 13.2499C28.0201 13.1799 25.5701 13.1099 21.8601 13.1099H21.3701C17.8001 13.1099 15.4201 13.1799 14.2301 13.3199C12.6201 13.4599 11.5001 13.8799 10.8701 14.4399C10.3101 14.9299 9.89012 15.8399 9.75012 17.0299C9.68012 17.7999 9.61011 19.4099 9.61011 21.8599V22.2099C9.61011 24.5199 9.6801 26.1299 9.8201 26.8999C10.0301 28.0199 10.3801 28.8599 11.0801 29.3499C11.7801 29.9099 12.9701 30.2599 14.6501 30.3999C15.8401 30.4699 18.2901 30.5399 22.0001 30.5399H22.4901C26.0601 30.5399 28.4401 30.4699 29.6301 30.3299C31.2401 30.1899 32.3601 29.7699 32.9901 29.2099C33.5501 28.7199 33.9701 27.8099 34.1101 26.6199C34.1801 25.8499 34.2501 24.2399 34.2501 21.7899V21.4399C34.2501 19.1299 34.1801 17.5199 34.0401 16.7499C33.8301 15.6299 33.4801 14.7899 32.7801 14.2999C32.0801 13.7399 30.8901 13.3899 29.2101 13.2499ZM26.4801 21.8599L18.7801 26.4799V17.2399L26.4801 21.8599Z" fill="white"/>
</g>
<rect x="0.5" y="0.5" width="43" height="43" rx="9.5" stroke="white" stroke-opacity="0.1"/>
</symbol>

<symbol id="icon-insta" fill="none" viewBox="0 0 44 44">
<g opacity="0.8">
<path d="M33.1279 17.4115C33.1142 16.4714 32.9401 15.5388 32.6067 14.6596C32.0233 13.1582 30.8354 11.971 29.3315 11.3899C28.4621 11.0633 27.5428 10.8882 26.6124 10.8683C25.4158 10.8149 25.0364 10.8 21.9988 10.8C18.9612 10.8 18.5719 10.8 17.384 10.8683C16.4548 10.8882 15.5355 11.0633 14.6661 11.3899C13.1622 11.971 11.973 13.1582 11.3909 14.6596C11.0638 15.5276 10.8871 16.4453 10.8697 17.373C10.8162 18.5688 10.8 18.9476 10.8 21.9801C10.8 25.0127 10.8 25.4001 10.8697 26.5873C10.8884 27.5162 11.0638 28.4326 11.3909 29.3032C11.9743 30.8033 13.1622 31.9905 14.6673 32.5716C15.5331 32.9094 16.4523 33.1006 17.3852 33.1304C18.5831 33.1838 18.9625 33.2 22.0001 33.2C25.0376 33.2 25.427 33.2 26.6149 33.1304C27.5441 33.1118 28.4633 32.9367 29.334 32.6101C30.8379 32.0277 32.0258 30.8405 32.6092 29.3404C32.9363 28.4711 33.1117 27.5547 33.1304 26.6245C33.1839 25.4299 33.2001 25.0511 33.2001 22.0174C33.1976 18.9848 33.1976 18.5999 33.1279 17.4115ZM21.9913 27.7149C18.8144 27.7149 16.2408 25.1455 16.2408 21.9739C16.2408 18.8023 18.8144 16.233 21.9913 16.233C25.1658 16.233 27.7419 18.8023 27.7419 21.9739C27.7419 25.1455 25.1658 27.7149 21.9913 27.7149ZM27.9707 17.3593C27.2281 17.3593 26.6298 16.7607 26.6298 16.0206C26.6298 15.2805 27.2281 14.6819 27.9707 14.6819C28.7108 14.6819 29.3104 15.2805 29.3104 16.0206C29.3104 16.7607 28.7108 17.3593 27.9707 17.3593Z" fill="white"/>
<path d="M21.993 25.479C23.9279 25.479 25.4965 23.9104 25.4965 21.9755C25.4965 20.0406 23.9279 18.472 21.993 18.472C20.0581 18.472 18.4895 20.0406 18.4895 21.9755C18.4895 23.9104 20.0581 25.479 21.993 25.479Z" fill="white"/>
</g>
<rect x="0.5" y="0.5" width="43" height="43" rx="9.5" stroke="white" stroke-opacity="0.1"/>
</symbol>

<symbol id="icon-facebook" width="44" height="44" viewBox="0 0 44 44" fill="none">
<g opacity="0.8">
<path
d="M25.0799 12.0601C25.2899 12.0601 25.4999 12.0601 25.9199 12.0601V15.2101C25.7099 15.2101 25.2899 15.2101 24.8699 15.2101C24.4499 15.2101 24.0299 15.2101 23.8199 15.4201C23.6099 15.6301 23.6099 15.8401 23.6099 16.3301C23.6099 16.7501 23.6099 17.0301 23.6099 17.4501H25.9199V20.1101H23.6099V31.6601H20.0399V20.0401H18.1499V17.3801H20.0399V16.4701C20.0399 14.9301 20.2499 13.8101 20.6699 13.3201C21.2999 12.4101 22.5599 11.9901 24.4499 11.9901C24.6599 12.0601 24.8699 12.0601 25.0799 12.0601Z"
fill="white" />
</g>
<rect x="0.5" y="0.5" width="43" height="43" rx="9.5" stroke="white" stroke-opacity="0.1" />
</symbol>

<symbol id="menu" viewBox="0 0 32 32">
<path d="M2.667 7.993c0-0.733 0.595-1.327 1.327-1.327h10.68c0.733 0 1.327 0.594 1.327 1.327s-0.594 1.327-1.327 1.327h-10.68c-0.733 0-1.327-0.594-1.327-1.327v0zM2.667 16c0-0.733 0.595-1.327 1.327-1.327h24.013c0.733 0 1.327 0.594 1.327 1.327s-0.594 1.327-1.327 1.327h-24.013c-0.733 0-1.327-0.594-1.327-1.327v0zM3.993 22.68c-0.733 0-1.327 0.594-1.327 1.327s0.594 1.327 1.327 1.327h16.013c0.733 0 1.327-0.594 1.327-1.327s-0.594-1.327-1.327-1.327h-16.013z"></path>
</symbol>

<symbol id="close-btn" viewBox="0 0 32 32">
<path stroke-linejoin="round" stroke-linecap="round" stroke-miterlimit="4" stroke-width="1.7333" d="M24 8l-16 16M8 8l16 16"></path>
</symbol>

<symbol id="heart" viewBox="0 0 32 32">
<path fill="none"  stroke-linejoin="round" stroke-linecap="round" stroke-miterlimit="4" stroke-width="2.6667" d="M27.787 6.147c-0.681-0.681-1.49-1.222-2.379-1.591s-1.844-0.559-2.807-0.559-1.917 0.19-2.807 0.559c-0.89 0.369-1.699 0.909-2.38 1.591l-1.413 1.413-1.413-1.413c-1.376-1.376-3.241-2.148-5.187-2.148s-3.811 0.773-5.187 2.148c-1.376 1.376-2.148 3.241-2.148 5.187s0.773 3.811 2.148 5.187l11.787 11.787 11.787-11.787c0.681-0.681 1.222-1.49 1.591-2.38s0.559-1.844 0.559-2.807-0.19-1.917-0.559-2.807c-0.369-0.89-0.909-1.699-1.591-2.38v0z"></path>
</symbol>

<symbol id="right-btn" viewBox="0 0 32 32">
<path fill="none" stroke-linejoin="miter" stroke-linecap="butt" stroke-miterlimit="4" stroke-width="0.7619" d="M6.857 0.381h18.286c3.577 0 6.476 2.9 6.476 6.476v18.286c0 3.577-2.899 6.476-6.476 6.476h-18.286c-3.577 0-6.476-2.899-6.476-6.476v-18.286c0-3.577 2.9-6.476 6.476-6.476z"></path>
<path fill="none" stroke-linejoin="round" stroke-linecap="round" stroke-miterlimit="4" stroke-width="0.7619" d="M13.714 20.571l4.571-4.571-4.571-4.571"></path>
</symbol>

<symbol id="left-btn" viewBox="0 0 32 32">
<path fill="none" stroke-linejoin="miter" stroke-linecap="butt" stroke-miterlimit="4" stroke-width="0.7619" d="M6.857 0.381h18.286c3.577 0 6.476 2.9 6.476 6.476v18.286c0 3.577-2.899 6.476-6.476 6.476h-18.286c-3.577 0-6.476-2.899-6.476-6.476v-18.286c0-3.577 2.9-6.476 6.476-6.476z"></path>
<path fill="none" stroke-linejoin="round" stroke-linecap="round" stroke-miterlimit="4" stroke-width="0.7619" d="M18.286 20.571l-4.571-4.571 4.571-4.571"></path>
</symbol>
<symbol id="icon-logo-2" viewBox="0 0 31 32">
<path fill="#000" style="fill: var(--color1, #000)" d="M27.681 18.564l-6.748-15.457-1.472-1.020-1.725-0.549-2.333-0.628-2.74 1.177-1.827 1.020 6.9 15.457h9.944z"></path>
<path fill="#000" style="fill: var(--color1, #000)" d="M3.464 13.395l6.748 15.493 1.471 1.022 1.725 0.55 2.334 0.629 2.739-1.18 1.827-1.022-6.9-15.493h-9.944z"></path>
<path fill="#fff" style="fill: var(--color2, #fff)" d="M10.476 3.309l-10.476 15.142 10.476 0.112 7.572-15.254c0.532-1.56 2.195-0.65 2.961 0-3.27-5.992-8.385-2.497-10.533 0zM20.628 28.691l10.476-15.142-10.476-0.112-7.573 15.254c-0.531 1.56-2.195 0.65-2.96 0 3.27 5.992 8.385 2.497 10.533 0z"></path>
</symbol>
</defs>
</svg>

